<?xml version="1.0"?>
<svg xmlns="http://www.w3.org/2000/svg" height="512px" viewBox="0 -3 512 512" width="512px" class=""><g><path d="m288.347656 244.714844-60.441406-42.996094c-3.945312-2.808594-8.4375-4.292969-12.984375-4.292969-7.574219 0-14.53125 4.109375-18.609375 10.992188l-50.078125 84.558593 60.292969-40.957031c2.542968-1.726562 5.488281-2.589843 8.425781-2.589843 3.050781 0 6.09375.925781 8.695313 2.777343l60.4375 42.992188c3.949218 2.808593 8.441406 4.292969 12.992187 4.292969 7.574219 0 14.527344-4.105469 18.605469-10.988282l50.082031-84.5625-60.296875 40.957032c-5.183594 3.523437-12.015625 3.449218-17.121094-.183594zm0 0" data-original="#000000" class="active-path" data-old_color="#000000" fill="#FFFFFF"/><path d="m436.847656 72.605469c-48.332031-46.820313-112.558594-72.605469-180.847656-72.605469s-132.515625 25.785156-180.851562 72.605469c-48.457032 46.945312-75.148438 109.398437-75.148438 175.855469 0 68.382812 29.191406 133.851562 80.332031 180.714843v35.042969c0 11.996094 3.640625 22.433594 10.523438 30.179688 7.128906 8.023437 17.222656 12.441406 28.417969 12.441406 6.1875 0 12.550781-1.335938 18.910156-3.96875l41.492187-17.191406c24.628907 7.460937 50.277344 11.238281 76.324219 11.238281 68.289062 0 132.515625-25.785157 180.847656-72.605469 48.460938-46.945312 75.152344-109.398438 75.152344-175.851562 0-66.457032-26.691406-128.910157-75.152344-175.855469zm-31.507812 123.386719-63.847656 107.800781c-9.53125 16.09375-26.136719 25.699219-44.414063 25.699219-.003906 0-.003906 0-.003906 0-10.816407 0-21.324219-3.402344-30.382813-9.847657l-51.933594-36.949219-74.003906 50.273438c-9.3125 6.324219-16.683594 9.269531-23.191406 9.269531-6.914062 0-12.992188-3.417969-16.257812-9.148437-5.953126-10.441406-.265626-22.675782 5.355468-32.164063l63.839844-107.796875c9.53125-16.09375 26.140625-25.703125 44.421875-25.703125 10.816406 0 21.320313 3.40625 30.378906 9.847657l51.9375 36.949218 74.011719-50.269531c9.308594-6.324219 16.675781-9.273437 23.1875-9.273437 6.914062 0 12.992188 3.421874 16.257812 9.148437 5.953126 10.445313.265626 22.675781-5.355468 32.164063zm0 0" data-original="#000000" class="active-path" data-old_color="#000000" fill="#FFFFFF"/></g> </svg>
